Coordinates
version=1
nRows=21
nColumns=22
inDegrees=yes

Units are S.I. units (second, meters, Newtons, ...)
If the header above contains a line with 'inDegrees', this indicates whether rotational values are in degrees (yes) or radians (no).

endheader
time	pelvis_tilt	pelvis_list	pelvis_rotation	pelvis_tx	pelvis_ty	pelvis_tz	hip_flexion_r	hip_adduction_r	hip_rotation_r	knee_angle_r	ankle_angle_r	subtalar_angle_r	hip_flexion_l	hip_adduction_l	hip_rotation_l	knee_angle_l	ankle_angle_l	subtalar_angle_l	lumbar_extension	lumbar_bending	lumbar_rotation
      3.86000000	      1.13161736	      1.71108090	      3.77628178	      0.37374451	      0.98097685	     -0.00220894	     26.66109128	     -4.79141801	     -7.99441666	     -6.58387360	      3.67715907	     15.66144769	    -10.66268967	      2.72486339	     -5.06911380	    -16.46162496	     20.11727695	     -1.44051460	     -6.69850185	     -3.80141149	     -6.39737067
      3.87000000	      1.07538856	      1.73059902	      4.08492982	      0.38445401	      0.97970460	     -0.00165401	     26.65020258	     -4.84717299	     -7.70884847	     -6.60672934	      3.63122162	     15.88508739	    -11.06585747	      2.55708384	     -4.70717088	    -16.83454817	     20.01133662	     -0.97709258	     -6.52483971	     -3.77756385	     -6.53103963
      3.88000000	      1.03244885	      1.74773191	      4.39569345	      0.39540092	      0.97858116	     -0.00105443	     26.63772295	     -4.91089958	     -7.50933263	     -6.90830949	      3.57407454	     15.98107512	    -11.49667809	      2.37655614	     -4.29993617	    -17.19620199	     19.79628536	     -0.52540352	     -6.34085975	     -3.74814449	     -6.66883135
      3.89000000	      1.00555274	      1.74871121	      4.70243273	      0.40659449	      0.97759806	     -0.00039882	     26.60402910	     -4.96177252	     -7.38411355	     -7.43501876	      3.55857949	     15.97228374	    -11.93324123	      2.16399520	     -3.89805327	    -17.59536588	     19.52266856	      0.06390591	     -6.14884644	     -3.69714670	     -6.77321568
      3.90000000	      0.97638326	      1.73518275	      5.00900598	      0.41802985	      0.97675683	      0.00032498	     26.56864314	     -4.99947560	     -7.34802504	     -8.14931657	      3.45963534	     15.82176691	    -12.36999715	      1.92619431	     -3.48701220	    -17.99675143	     19.13047781	      0.64795539	     -5.92598545	     -3.63108323	     -6.88529990
      3.91000000	      0.94098520	      1.69012048	      5.30061708	      0.42968793	      0.97606173	      0.00115193	     26.53797248	     -4.99861093	     -7.40922419	     -9.00545700	      3.22089289	     15.50817353	    -12.78708366	      1.64777404	     -3.10544014	    -18.42502413	     18.65224639	      1.30509781	     -5.66919252	     -3.53378494	     -6.96322944
      3.92000000	      0.89130265	      1.60963825	      5.60240881	      0.44152098	      0.97552973	      0.00205216	     26.50957069	     -4.96626664	     -7.57064663	     -9.94017807	      2.79667498	     15.07248988	    -13.15866138	      1.32265636	     -2.73674974	    -18.89735977	     18.06374735	      1.93785089	     -5.37610032	     -3.40236246	     -7.05156819
      3.93000000	      0.82857890	      1.47129849	      5.87214089	      0.45352094	      0.97516953	      0.00310910	     26.50000655	     -4.85938264	     -7.79449426	    -10.92644524	      2.15366617	     14.46442075	    -13.47677415	      0.93277800	     -2.46800650	    -19.42596620	     17.36615197	      2.61081736	     -5.04441916	     -3.21307015	     -7.11012796
      3.94000000	      0.74910310	      1.27433548	      6.14173362	      0.46561531	      0.97500245	      0.00425192	     26.51389053	     -4.69776801	     -8.12326955	    -11.93146815	      1.30243134	     13.77950563	    -13.71301126	      0.48030343	     -2.23258280	    -20.04198868	     16.55769637	      3.24706385	     -4.68154598	     -2.96407307	     -7.16478660
      3.95000000	      0.65324699	      1.00578756	      6.39822737	      0.47779013	      0.97503298	      0.00549339	     26.56439337	     -4.46428657	     -8.51420267	    -12.95919017	      0.28852475	     13.02153954	    -13.85366244	     -0.04797602	     -2.09466238	    -20.75937863	     15.64743865	      3.85838698	     -4.28468226	     -2.63730120	     -7.22409116
      3.96000000	      0.56203232	      0.69045543	      6.60987881	      0.49000633	      0.97528314	      0.00690173	     26.63543049	     -4.16210167	     -8.88139699	    -14.01545982	     -0.75931867	     12.13047258	    -13.90407101	     -0.62277310	     -2.08735304	    -21.60807286	     14.56824948	      4.47117953	     -3.88743801	     -2.27008490	     -7.23172333
      3.97000000	      0.46186935	      0.31311364	      6.79888600	      0.50224594	      0.97571597	      0.00839298	     26.74554568	     -3.79402560	     -9.22968550	    -15.12705241	     -1.77895434	     11.25751268	    -13.83447300	     -1.26490217	     -2.23558578	    -22.60168679	     13.37878738	      5.00041026	     -3.46939727	     -1.82983877	     -7.26043677
      3.98000000	      0.37861106	     -0.08878529	      6.94352248	      0.51446437	      0.97636159	      0.01001417	     26.85204339	     -3.37494742	     -9.49680668	    -16.27259532	     -2.66788007	     10.31966973	    -13.66217902	     -1.93440845	     -2.52730617	    -23.76050585	     12.00354844	      5.47312067	     -3.07122588	     -1.37038377	     -7.24363551
      3.99000000	      0.31030638	     -0.52118579	      7.04683943	      0.52663446	      0.97719306	      0.01173929	     26.94814674	     -2.89854811	     -9.67456593	    -17.44111386	     -3.39605496	      9.41712769	    -13.37993776	     -2.64846684	     -3.00675995	    -25.08546851	     10.47904103	      5.83131109	     -2.68771607	     -0.87530583	     -7.23203183
      4.00000000	      0.26489702	     -0.97376631	      7.10267541	      0.53871616	      0.97820546	      0.01357804	     27.00402085	     -2.36435878	     -9.75969612	    -18.58845714	     -3.92771334	      8.54367931	    -12.99405014	     -3.40362625	     -3.66842867	    -26.57938898	      8.80437218	      6.07120072	     -2.33394527	     -0.35947482	     -7.20058757
      4.01000000	      0.24512001	     -1.43378225	      7.11367466	      0.55066331	      0.97939188	      0.01553211	     26.99206991	     -1.77729905	     -9.74991284	    -19.66291564	     -4.26643592	      7.67663808	    -12.51082942	     -4.19558000	     -4.48750836	    -28.23463934	      6.99503779	      6.19692506	     -2.01772427	      0.16055181	     -7.15464872
      4.02000000	      0.24687774	     -1.89882538	      7.07706111	      0.56243934	      0.98072144	      0.01758803	     26.90867349	     -1.13732091	     -9.64056795	    -20.64266914	     -4.43702816	      6.91965977	    -11.93525167	     -5.03019991	     -5.45826828	    -30.03724396	      5.11025956	      6.22822484	     -1.73747188	      0.68720222	     -7.10167308
      4.03000000	      0.27323696	     -2.32271154	      7.04012701	      0.57400025	      0.98219152	      0.01968542	     26.72557883	     -0.51235337	     -9.54710542	    -21.49118375	     -4.42944255	      5.94421523	    -11.26846426	     -5.86191331	     -6.44079895	    -31.98713765	      3.17891485	      6.11758071	     -1.50750826	      1.15257081	     -7.02533456
      4.04000000	      0.31456626	     -2.73427388	      6.98376577	      0.58532862	      0.98374516	      0.02186815	     26.47012095	      0.13362251	     -9.40849784	    -22.22451283	     -4.30408266	      5.13328832	    -10.51486180	     -6.72664275	     -7.46390909	    -34.06648436	      1.32623895	      5.93782984	     -1.31414538	      1.59514211	     -6.95127444
      4.05000000	      0.37238982	     -3.10158813	      6.95106514	      0.59638974	      0.98537325	      0.02407080	     26.12608788	      0.74843470	     -9.27710190	    -22.81910919	     -4.07755572	      4.34319906	     -9.67384984	     -7.58599654	     -8.41182798	    -36.27038182	     -0.38792343	      5.66593469	     -1.16723660	      1.97167404	     -6.88928824
      4.06000000	      0.44402428	     -3.42488709	      6.95813758	      0.60717917	      0.98704387	      0.02626567	     25.71018216	      1.31891591	     -9.18212754	    -23.29929693	     -3.77237738	      3.61835686	     -8.75011711	     -8.42975234	     -9.23051622	    -38.57644573	     -1.87142814	      5.32985795	     -1.06212694	      2.28126274	     -6.85282140
